<?xml version="1.0" encoding="UTF-8" standalone="no"?>
<svg
   xmlns:dc="http://purl.org/dc/elements/1.1/"
   xmlns:cc="http://creativecommons.org/ns#"
   xmlns:rdf="http://www.w3.org/1999/02/22-rdf-syntax-ns#"
   xmlns:svg="http://www.w3.org/2000/svg"
   xmlns="http://www.w3.org/2000/svg"
   xmlns:sodipodi="http://sodipodi.sourceforge.net/DTD/sodipodi-0.dtd"
   xmlns:inkscape="http://www.inkscape.org/namespaces/inkscape"
   version="1.0"
   width="374.25662pt"
   height="215.72955pt"
   viewBox="0 0 374.25662 215.72955"
   preserveAspectRatio="xMidYMid meet"
   id="svg12"
   sodipodi:docname="gauluoi.svg"
   inkscape:version="1.0.1 (0767f8302a, 2020-10-17)">
  <defs
     id="defs16" />
  <sodipodi:namedview
     pagecolor="#ffffff"
     bordercolor="#666666"
     borderopacity="1"
     objecttolerance="10"
     gridtolerance="10"
     guidetolerance="10"
     inkscape:pageopacity="0"
     inkscape:pageshadow="2"
     inkscape:window-width="1848"
     inkscape:window-height="1016"
     id="namedview14"
     showgrid="false"
     fit-margin-top="0"
     fit-margin-left="0"
     fit-margin-right="0"
     fit-margin-bottom="0"
     inkscape:zoom="0.63134766"
     inkscape:cx="258.13959"
     inkscape:cy="145.29632"
     inkscape:window-x="72"
     inkscape:window-y="27"
     inkscape:window-maximized="1"
     inkscape:current-layer="svg12" />
  <metadata
     id="metadata2">
Created by potrace 1.16, written by Peter Selinger 2001-2019
<rdf:RDF>
  <cc:Work
     rdf:about="">
    <dc:format>image/svg+xml</dc:format>
    <dc:type
       rdf:resource="http://purl.org/dc/dcmitype/StillImage" />
    <dc:title></dc:title>
  </cc:Work>
</rdf:RDF>
</metadata>
  <g
     transform="matrix(0.1,0,0,-0.1,-318.3953,620.97225)"
     fill="#000000"
     stroke="none"
     id="g10">
    <path
       d="m 5192,6190 c -197,-52 -325,-193 -369,-406 l -17,-81 -84,-7 c -423,-32 -835,-283 -982,-599 l -31,-65 -57,5 c -118,11 -246,-32 -330,-111 -50,-46 -99,-127 -128,-208 -14,-40 -14,-44 4,-58 15,-13 17,-21 10,-40 -28,-74 19,-251 68,-258 14,-2 24,-12 27,-30 10,-49 71,-136 122,-174 60,-45 81,-47 97,-10 7,15 13,28 14,30 0,1 21,-9 45,-23 62,-34 163,-58 213,-51 27,4 69,0 121,-14 130,-33 397,-46 665,-32 124,7 371,17 549,23 301,10 328,9 395,-8 51,-13 108,-18 206,-18 127,0 138,2 185,27 28,14 66,42 85,61 l 35,35 23,-21 c 22,-20 34,-22 145,-22 105,0 126,-3 151,-20 24,-16 51,-20 156,-23 132,-4 295,11 318,31 27,22 50,85 70,192 29,152 35,260 22,395 -26,274 -99,488 -236,695 -104,158 -219,253 -368,302 -73,24 -96,27 -244,28 l -164,1 -29,61 c -19,40 -50,80 -88,116 -45,41 -58,60 -54,75 7,29 -54,92 -128,132 -44,23 -79,34 -125,38 -35,2 -61,8 -59,12 3,5 2,15 -1,24 -9,23 -138,20 -232,-4 z m 127,-61 c -8,-17 -8,-24 3,-36 12,-12 22,-12 72,1 88,23 171,3 245,-60 l 32,-27 -21,-19 c -28,-26 -22,-37 31,-66 65,-34 118,-89 150,-156 16,-33 27,-62 25,-64 -2,-2 -23,2 -45,9 -64,19 -69,6 -36,-95 24,-74 27,-96 23,-173 -4,-71 -10,-98 -32,-143 -53,-102 -155,-179 -328,-249 -36,-14 -38,-48 -4,-57 21,-5 24,-13 30,-69 11,-104 -12,-213 -67,-322 -64,-126 -252,-331 -377,-412 -64,-42 -116,-54 -275,-66 l -80,-6 30,20 c 69,46 102,130 90,226 -14,115 -123,273 -222,324 -27,13 -61,21 -95,21 -104,0 -247,-93 -285,-186 -10,-26 -25,-44 -34,-44 -9,0 -27,-17 -40,-37 -34,-51 -67,-73 -125,-81 -40,-6 -49,-11 -49,-27 0,-16 8,-21 40,-23 64,-6 109,14 154,64 l 40,45 10,-38 c 24,-88 115,-193 211,-244 l 55,-30 -182,6 c -198,6 -331,24 -402,56 -140,61 -195,211 -171,464 36,392 126,572 380,766 164,125 483,239 671,239 51,0 59,-3 59,-19 0,-24 23,-43 42,-36 11,4 17,29 22,90 21,280 188,466 424,474 41,1 42,0 31,-20 z m 946,-464 c 100,-27 183,-74 255,-145 156,-157 276,-399 327,-660 23,-119 25,-409 4,-515 -21,-107 -48,-172 -74,-179 -35,-11 -299,-19 -350,-12 -58,9 -68,34 -42,102 9,24 15,50 12,57 -2,7 -22,18 -43,26 -95,33 -166,97 -214,191 -27,52 -38,188 -22,259 6,24 8,50 5,57 -9,24 -43,16 -54,-13 -17,-45 -23,-183 -10,-245 16,-75 77,-173 140,-225 59,-49 60,-47 -60,-88 l -69,-24 v 74 c 0,63 -4,82 -33,136 -28,55 -40,67 -87,91 -46,23 -72,29 -160,34 -122,7 -174,18 -213,46 -33,24 -60,17 -55,-14 2,-16 19,-31 58,-51 47,-23 75,-29 182,-36 168,-12 209,-35 242,-134 22,-64 20,-93 -8,-153 -43,-92 -125,-134 -260,-134 -108,0 -173,12 -334,62 -103,32 -135,39 -144,30 -10,-10 -10,-17 -1,-31 10,-16 8,-19 -19,-25 -17,-3 -65,-6 -107,-5 -74,0 -75,0 -51,17 45,30 211,195 271,270 66,82 131,208 154,297 12,42 15,94 13,178 l -3,117 53,25 c 62,28 158,100 197,147 16,18 42,62 59,98 37,79 46,201 22,290 -8,30 -13,57 -11,59 2,2 17,-1 33,-7 34,-12 62,1 62,28 0,15 9,20 48,23 79,8 224,-2 287,-18 z M 3682,4975 c 3,-3 0,-26 -7,-52 -12,-46 -13,-47 -66,-58 -134,-28 -208,-118 -209,-255 0,-80 28,-146 89,-208 38,-39 128,-92 157,-92 6,0 18,-17 28,-37 10,-21 31,-54 47,-74 l 29,-37 -43,10 c -56,12 -120,45 -167,85 -46,40 -70,36 -70,-13 0,-19 -4,-34 -9,-34 -15,0 -82,80 -97,116 -8,18 -14,49 -14,67 0,43 -23,66 -50,49 -17,-10 -20,-6 -35,39 -21,63 -14,116 24,184 32,57 30,75 -5,75 h -25 l 28,51 c 46,85 137,157 228,179 35,9 159,12 167,5 z m -42,-269 c -7,-59 -11,-156 -8,-221 3,-63 3,-115 -1,-115 -15,0 -109,73 -130,100 -26,36 -51,102 -51,138 0,87 73,183 151,199 24,5 46,8 48,7 2,-2 -2,-50 -9,-108 z"
       id="path4" />
    <path
       d="m 5253,5970 c -92,-19 -175,-87 -214,-174 -27,-62 -49,-154 -49,-206 0,-50 -10,-67 -52,-93 -30,-18 -37,-54 -14,-63 7,-3 29,4 47,15 34,21 83,26 127,15 21,-6 22,-8 7,-25 -9,-9 -15,-25 -13,-35 2,-15 14,-18 68,-19 73,-1 104,-12 76,-27 -24,-13 -20,-43 8,-57 31,-17 48,-53 55,-116 5,-45 8,-50 31,-50 23,0 25,4 28,46 l 3,46 61,18 c 87,26 154,84 198,170 33,65 35,73 35,174 0,98 -2,111 -32,173 -75,159 -218,239 -370,208 z m 183,-78 c 101,-52 167,-172 167,-307 1,-152 -78,-257 -221,-295 -39,-10 -45,-9 -57,7 -12,16 -10,20 11,31 15,8 24,20 22,30 -4,22 -64,61 -114,74 -25,7 -44,19 -50,32 -11,25 -63,53 -116,62 -45,8 -46,15 -22,131 27,132 86,216 175,250 49,18 155,11 205,-15 z"
       id="path6" />
    <path
       d="m 4853,4850 c -44,-67 -100,-103 -159,-102 -30,0 -47,-4 -51,-14 -16,-43 69,-58 143,-25 62,28 153,143 140,177 -11,28 -41,13 -73,-36 z"
       id="path8" />
  </g>
</svg>
